<svg id="Layer_1" data-name="Layer 1" xmlns="http://www.w3.org/2000/svg" viewBox="0 0 1743.69 1717.1"><defs><style>.cls-1{fill:#fff;}</style></defs><title>Jake Fried Logo White</title><path class="cls-1" d="M1871.8,269.7V195.8a54.39,54.39,0,0,0-54.4-54.4H307.6a54.39,54.39,0,0,0-54.4,54.4v73.5a54.39,54.39,0,0,0,54.4,54.4H956.2v947.1c0,277.2-107.8,397.8-346.4,397.8-115.8,0-233.5-56.3-326.7-172.3a54.34,54.34,0,0,0-80.1-5.1l-58.3,56.1a54.47,54.47,0,0,0-6.1,71.3c119.7,164.7,302.4,239.9,476.3,239.9,418.2,0,559.3-256.7,559.3-569.8V945.3h643.1a54.39,54.39,0,0,0,54.4-54.4V817a54.39,54.39,0,0,0-54.4-54.4H1174.2V324h643.1A54.39,54.39,0,0,0,1871.8,269.7Z" transform="translate(-128.11 -141.4)"/></svg>